# File created by Blade
# Date/Time:  Wed Jan 21 16:20:01 2015
# Frame Rate: 120.000 fps
#------------------------------------------------------
:FULLY-SPECIFIED
:DEGREES
593
root 15.003232 35.894352 -18.548066 -187.499382 -27.736352 -178.979463
Spine 14.791104 -27.859443 -8.961713
Head 15.726878 -1.327414 11.083062
LeftShoulder 6.685396 -23.906743 -2.782676
LeftArm 42.952760 69.000761 -24.859194
LeftForeArm 7.111407 -0.000000 37.692080
LeftHand -0.609074 -0.000000 -28.534530
LeftHandThumb1 -26.253704 0.000000 33.147579
RightShoulder -11.112931 -11.073227 13.634297
RightArm 2.936331 14.910352 59.716745
RightForeArm -31.899568 -0.000000 33.183174
RightHand -2.005147 0.000000 8.004395
RightHandThumb1 -24.326973 -0.000000 -32.862282
LeftUpLeg 13.133671 -6.732679 -6.654513
LeftLeg -14.177839 -0.000000 0.000000
LeftFoot 3.587796 15.413547 0.920549
LeftToeBase -158.830226 -0.000000 0.000000
RightUpLeg -71.236789 28.825536 11.803776
RightLeg 110.401453 -0.000000 -0.000000
RightFoot 29.307923 -26.517380 -16.839481
RightToeBase 25.769756 -0.000000 -0.000000
594
root 14.997833 35.904902 -18.571600 -187.673720 -28.180551 -178.865399
Spine 14.802522 -27.849109 -8.873653
Head 15.893376 -1.821304 11.076049
LeftShoulder 6.519841 -24.280386 -2.650003
LeftArm 42.251152 69.148986 -25.624383
LeftForeArm 6.750295 -0.000000 38.013277
LeftHand -0.898194 0.000000 -28.387689
LeftHandThumb1 -26.253704 0.000000 33.147579
RightShoulder -11.155232 -11.067388 13.541709
RightArm 2.710468 15.200492 59.511715
RightForeArm -31.891073 -0.000000 33.262877
RightHand -1.984525 -0.000000 8.023304
RightHandThumb1 -24.326973 -0.000000 -32.862282
LeftUpLeg 13.256069 -6.846147 -6.582015
LeftLeg -14.124251 -0.000000 0.000000
LeftFoot 3.552146 15.166634 0.896649
LeftToeBase -158.631161 -0.000000 0.000000
RightUpLeg -71.302485 28.786367 11.950513
RightLeg 110.641170 -0.000000 -0.000000
RightFoot 29.247199 -26.281458 -16.847419
RightToeBase 25.701370 -0.000000 -0.000000
595
root 14.992201 35.913079 -18.595079 -187.841581 -28.597656 -178.767856
Spine 14.796867 -27.836382 -8.789778
Head 16.086725 -2.308519 11.016338
LeftShoulder 6.386769 -24.702507 -2.436310
LeftArm 41.347475 69.430694 -26.634769
LeftForeArm 6.910934 -0.000000 38.283887
LeftHand -0.942010 -0.000000 -28.725535
LeftHandThumb1 -26.253704 0.000000 33.147579
RightShoulder -11.236833 -11.072359 13.412093
RightArm 2.564509 15.393279 59.337599
RightForeArm -31.849721 0.000000 33.266010
RightHand -2.020279 -0.000000 7.999361
RightHandThumb1 -24.326973 -0.000000 -32.862282
LeftUpLeg 13.357549 -6.889878 -6.521026
LeftLeg -14.036607 -0.000000 0.000000
LeftFoot 3.508151 14.893260 0.937900
LeftToeBase -158.492353 -0.000000 0.000000
RightUpLeg -71.383784 28.804170 12.059678
RightLeg 110.901204 -0.000000 -0.000000
RightFoot 29.162125 -26.134224 -16.705485
RightToeBase 25.363291 -0.000000 -0.000000
596
root 14.991580 35.925249 -18.630027 -188.140067 -28.984422 -178.594631
Spine 14.897769 -27.729298 -8.704444
Head 16.296413 -2.889266 11.022510
LeftShoulder 6.382456 -24.992615 -2.174559
LeftArm 40.308493 69.591632 -27.863827
LeftForeArm 7.110144 0.000000 38.411962
LeftHand -0.993089 0.000000 -28.316475
LeftHandThumb1 -26.253704 0.000000 33.147579
RightShoulder -11.322450 -11.002773 13.350403
RightArm 2.350738 15.727376 59.107360
RightForeArm -31.847885 0.000000 33.264789
RightHand -2.028477 -0.000000 8.021670
RightHandThumb1 -24.326973 -0.000000 -32.862282
LeftUpLeg 13.610152 -7.044452 -6.404454
LeftLeg -14.024377 -0.000000 0.000000
LeftFoot 3.517547 14.715391 0.952926
LeftToeBase -158.494010 -0.000000 0.000000
RightUpLeg -71.295228 28.865841 12.306100
RightLeg 111.118659 -0.000000 -0.000000
RightFoot 29.171964 -25.984352 -16.721297
RightToeBase 25.086509 -0.000000 -0.000000
597
root 14.980313 35.933058 -18.655658 -188.350264 -29.419227 -178.489993
Spine 14.916898 -27.758878 -8.634239
Head 16.558711 -3.406662 10.923242
LeftShoulder 6.377873 -25.236004 -1.869483
LeftArm 38.687602 69.664862 -29.698278
LeftForeArm 7.442689 -0.000000 38.576861
LeftHand -1.206914 -0.000000 -27.267059
LeftHandThumb1 -26.253704 0.000000 33.147579
RightShoulder -11.370815 -11.001517 13.218431
RightArm 2.212652 15.992667 58.909581
RightForeArm -31.875659 -0.000000 33.207983
RightHand -2.015372 0.000000 7.987417
RightHandThumb1 -24.326973 -0.000000 -32.862282
LeftUpLeg 13.789128 -7.293400 -6.385565
LeftLeg -13.991555 -0.000000 0.000000
LeftFoot 3.521384 14.620240 0.990895
LeftToeBase -158.690230 -0.000000 0.000000
RightUpLeg -71.341287 28.923733 12.393901
RightLeg 111.388500 -0.000000 -0.000000
RightFoot 29.237431 -25.885467 -16.709618
RightToeBase 24.690470 -0.000000 -0.000000
598
root 14.970379 35.940474 -18.678629 -188.543175 -29.863066 -178.394715
Spine 14.932550 -27.781138 -8.570923
Head 16.801325 -3.919524 10.865698
LeftShoulder 6.421389 -25.304112 -1.524516
LeftArm 36.657858 69.427721 -31.942133
LeftForeArm 7.885575 -0.000000 38.864788
LeftHand -1.335664 -0.000000 -26.498995
LeftHandThumb1 -26.253704 0.000000 33.147579
RightShoulder -11.487031 -10.939390 13.105092
RightArm 2.105104 16.123002 58.665172
RightForeArm -31.788356 -0.000000 33.092008
RightHand -2.015285 -0.000000 7.943020
RightHandThumb1 -24.326973 -0.000000 -32.862282
LeftUpLeg 13.929462 -7.585527 -6.386902
LeftLeg -13.918107 -0.000000 0.000000
LeftFoot 3.522823 14.587006 1.041669
LeftToeBase -158.942266 -0.000000 0.000000
RightUpLeg -71.418100 28.981094 12.416745
RightLeg 111.686429 -0.000000 -0.000000
RightFoot 29.103633 -25.645177 -16.763160
RightToeBase 24.979039 -0.000000 -0.000000
599
root 14.959878 35.946465 -18.700508 -188.697496 -30.340513 -178.329596
Spine 14.912524 -27.856796 -8.517273
Head 17.058426 -4.399598 10.730664
LeftShoulder 6.476887 -25.286321 -1.222619
LeftArm 34.317333 69.030900 -34.353904
LeftForeArm 8.568161 -0.000000 39.401192
LeftHand -1.560586 -0.000000 -26.114157
LeftHandThumb1 -26.253704 0.000000 33.147579
RightShoulder -11.740543 -10.984835 12.979983
RightArm 2.347540 16.550446 58.567097
RightForeArm -31.912242 0.000000 32.649733
RightHand -1.671234 -0.000000 8.061920
RightHandThumb1 -24.326973 -0.000000 -32.862282
LeftUpLeg 14.029737 -7.899357 -6.425621
LeftLeg -13.821819 -0.000000 0.000000
LeftFoot 3.536144 14.582918 1.067205
LeftToeBase -159.255033 -0.000000 0.000000
RightUpLeg -71.526236 29.010671 12.410725
RightLeg 111.974260 -0.000000 -0.000000
RightFoot 29.186171 -25.536754 -16.879367
RightToeBase 25.051352 -0.000000 -0.000000
600
root 14.956456 35.954007 -18.731009 -188.883092 -30.805617 -178.209321
Spine 14.885246 -27.965103 -8.442705
Head 17.347753 -4.844103 10.624200
LeftShoulder 6.476885 -25.228937 -0.928711
LeftArm 31.860756 68.514606 -36.818556
LeftForeArm 9.203988 0.000000 40.052580
LeftHand -1.843439 0.000000 -25.563589
LeftHandThumb1 -26.253704 0.000000 33.147579
RightShoulder -11.935422 -10.957824 12.911059
RightArm 2.353820 16.670894 58.320090
RightForeArm -31.690498 -0.000000 32.481876
RightHand -1.707365 0.000000 7.899075
RightHandThumb1 -24.326973 -0.000000 -32.862282
LeftUpLeg 14.155714 -8.288486 -6.414406
LeftLeg -13.747640 -0.000000 0.000000
LeftFoot 3.556692 14.652727 1.161685
LeftToeBase -159.581874 -0.000000 0.000000
RightUpLeg -71.624282 29.093599 12.439368
RightLeg 112.262696 -0.000000 -0.000000
RightFoot 29.095165 -25.380328 -16.767394
RightToeBase 24.851380 -0.000000 -0.000000
601
root 14.948093 35.960694 -18.762053 -189.050548 -31.225522 -178.098986
Spine 14.807117 -28.062338 -8.325257
Head 17.654343 -5.312403 10.434119
LeftShoulder 6.441420 -25.032225 -0.758983
LeftArm 29.619222 67.848726 -38.874539
LeftForeArm 10.170133 -0.000000 41.075225
LeftHand -2.106817 -0.000000 -25.278865
LeftHandThumb1 -26.253704 0.000000 33.147579
RightShoulder -12.104426 -10.867375 12.827790
RightArm 2.232310 16.838041 58.007609
RightForeArm -31.274042 -0.000000 32.441946
RightHand -1.840836 -0.000000 7.926633
RightHandThumb1 -24.326973 -0.000000 -32.862282
LeftUpLeg 14.277019 -8.646941 -6.420246
LeftLeg -13.700472 -0.000000 0.000000
LeftFoot 3.607107 14.791768 1.246221
LeftToeBase -159.993825 -0.000000 0.000000
RightUpLeg -71.739352 29.228136 12.448047
RightLeg 112.552672 -0.000000 -0.000000
RightFoot 29.070734 -25.182175 -16.680561
RightToeBase 24.216254 -0.000000 -0.000000
602
root 14.943019 35.964966 -18.791549 -189.200391 -31.658651 -178.014778
Spine 14.736179 -28.201037 -8.262745
Head 17.962836 -5.765979 10.265871
LeftShoulder 6.333075 -24.835229 -0.604468
LeftArm 27.507981 67.121031 -40.694577
LeftForeArm 11.260902 -0.000000 42.260017
LeftHand -2.346055 -0.000000 -24.979377
LeftHandThumb1 -26.253704 0.000000 33.147579
RightShoulder -12.255372 -10.810291 12.761522
RightArm 2.135934 16.978835 57.705528
RightForeArm -30.958698 -0.000000 32.364891
RightHand -1.903546 -0.000000 7.780239
RightHandThumb1 -24.326973 -0.000000 -32.862282
LeftUpLeg 14.385912 -9.135845 -6.467949
LeftLeg -13.622667 -0.000000 0.000000
LeftFoot 3.663172 15.002346 1.392239
LeftToeBase -160.301776 -0.000000 0.000000
RightUpLeg -71.871127 29.362735 12.435660
RightLeg 112.848368 -0.000000 -0.000000
RightFoot 29.070841 -24.945683 -16.802948
RightToeBase 24.115101 -0.000000 -0.000000
603
root 14.932630 35.966120 -18.817830 -189.295045 -31.996678 -177.967791
Spine 14.611321 -28.336576 -8.181108
Head 18.272442 -6.137753 10.068911
LeftShoulder 6.117863 -24.679708 -0.497536
LeftArm 25.478098 66.429699 -42.341158
LeftForeArm 12.323766 -0.000000 43.577013
LeftHand -2.567367 -0.000000 -24.887079
LeftHandThumb1 -26.253704 0.000000 33.147579
RightShoulder -12.323067 -10.758724 12.645944
RightArm 1.996701 17.230745 57.410784
RightForeArm -30.670092 0.000000 32.312064
RightHand -1.857029 -0.000000 7.770511
RightHandThumb1 -24.326973 -0.000000 -32.862282
LeftUpLeg 14.448998 -9.580779 -6.554666
LeftLeg -13.525980 -0.000000 0.000000
LeftFoot 3.695667 15.320051 1.543700
LeftToeBase -160.545495 -0.000000 0.000000
RightUpLeg -72.061309 29.605366 12.374161
RightLeg 113.157579 -0.000000 -0.000000
RightFoot 29.121662 -24.720806 -16.853321
RightToeBase 24.097190 -0.000000 -0.000000
604
root 14.925073 35.964979 -18.848895 -189.391397 -32.353654 -177.946043
Spine 14.495783 -28.486406 -8.154563
Head 18.611301 -6.525150 9.902144
LeftShoulder 5.830622 -24.476329 -0.402242
LeftArm 23.666982 65.729684 -43.671330
LeftForeArm 13.522734 -0.000000 44.978760
LeftHand -2.642649 -0.000000 -24.871861
LeftHandThumb1 -26.253704 0.000000 33.147579
RightShoulder -12.418400 -10.794322 12.565223
RightArm 1.903410 17.435618 57.124739
RightForeArm -30.241076 0.000000 32.258021
RightHand -1.827425 -0.000000 7.546943
RightHandThumb1 -24.326973 -0.000000 -32.862282
LeftUpLeg 14.539750 -10.147995 -6.684871
LeftLeg -13.434794 -0.000000 0.000000
LeftFoot 3.736600 15.774631 1.727388
LeftToeBase -160.868897 -0.000000 0.000000
RightUpLeg -72.234719 29.851310 12.311364
RightLeg 113.457294 -0.000000 -0.000000
RightFoot 29.192549 -24.509049 -16.894903
RightToeBase 23.800988 -0.000000 -0.000000
605
root 14.914725 35.960208 -18.879874 -189.481422 -32.710222 -177.936783
Spine 14.388362 -28.611154 -8.120875
Head 18.867951 -6.987494 9.760138
LeftShoulder 5.537811 -24.371622 -0.336533
LeftArm 21.811470 65.128466 -44.964504
LeftForeArm 14.596458 0.000000 46.456592
LeftHand -2.959961 -0.000000 -24.493031
LeftHandThumb1 -26.253704 0.000000 33.147579
RightShoulder -12.548281 -10.806272 12.490181
RightArm 1.757212 17.784620 56.843861
RightForeArm -30.045721 -0.000000 32.316904
RightHand -1.812094 -0.000000 7.577988
RightHandThumb1 -24.326973 -0.000000 -32.862282
LeftUpLeg 14.625331 -10.817995 -6.851442
LeftLeg -13.302152 -0.000000 0.000000
LeftFoot 3.812769 16.262638 2.027672
LeftToeBase -161.014881 -0.000000 0.000000
RightUpLeg -72.420019 30.094195 12.240520
RightLeg 113.790673 -0.000000 -0.000000
RightFoot 29.165719 -24.276322 -16.874072
RightToeBase 24.363305 -0.000000 -0.000000
